# xmcd CD database file
#
# Track frame offsets:
#	150
#	27383
#	50853
#	73738
#	99366
#	121946
#	146928
#	173609
#
# Disc length: 2596 seconds
#
# Revision: 0
# Processed by: cddbd v1.5.2PL0 Copyright (c) Steve Scherf et al.
# Submitted via: CDex 1.70beta1
#
DISCID=730a2208
DTITLE=Ultimix Records - Back Spins 02
DYEAR=2008
DGENRE=Ultimix
TTITLE0=Young MC - Bust A Move (Ultimix BS 118 bpm)
TTITLE1=Trinere - They're Playing Our Song (Ultimix BS 124 bpm)
TTITLE2=George Micheal - Faith (Ultimix BS 96 192 96 bpm)
TTITLE3=Angelina - Release Me (Ultimix BS 130 bpm)
TTITLE4=Jagged Edge - Let's Get Married (Ultimix BS 110 bpm)
TTITLE5=Nelly - Country Grammar (Ultimix BS 81 bpm)
TTITLE6=ELO - Sweet Talkin' Woman (Ultimix BS 131 bpm)
TTITLE7=Taylor Dayne - Tell It To My Heart (Ultimix BS 118 bpm)
EXTD=YEAR: 2008
EXTT0=
EXTT1=
EXTT2=
EXTT3=
EXTT4=
EXTT5=
EXTT6=
EXTT7=
PLAYORDER=
